<svg xmlns="http://www.w3.org/2000/svg" baseProfile="tiny" shape-rendering="crispEdges" style="background-color:#fff" version="1.2" viewBox="0 0 1024 1024"><path d="M62 62h31v217H62zM62 310h31v31H62zM62 496h93v31H62zM62 558h31v31H62zM62 620h31v31H62zM62 744h31v217H62zM93 62h186v31H93zM93 248h186v31H93zM93 372h124v31H93zM93 434h93v31H93zM93 682h62v31H93zM93 744h186v31H93zM93 930h186v31H93zM124 124h93v93h-93z"/><path d="M124 310h31v93h-31zM124 558h62v31h-62zM124 620h31v93h-31zM124 806h93v93h-93zM155 310h31v31h-31z"/><path d="M155 527h31v155h-31zM186 403h31v31h-31zM186 496h124v31H186zM186 620h31v31h-31zM186 682h93v31h-93zM217 310h93v31h-93z"/><path d="M217 434h31v93h-31zM217 558h155v31H217zM217 651h31v62h-31zM248 93h31v186h-31zM248 372h93v31h-93zM248 434h31v31h-31zM248 620h31v31h-31zM248 775h31v186h-31z"/><path d="M279 527h31v93h-31zM279 651h31v31h-31zM310 62h62v62h-62zM310 155h62v31h-62zM310 248h31v62h-31zM310 403h31v31h-31zM310 620h124v31H310zM310 682h31v124h-31zM310 837h31v62h-31zM310 930h62v31h-62zM341 186h31v31h-31zM341 279h31v31h-31zM341 496h31v31h-31z"/><path d="M341 589h93v62h-93zM341 713h31v31h-31zM341 775h62v62h-62zM341 868h31v93h-31zM372 248h31v31h-31zM372 434h93v31h-93zM372 651h186v31H372zM372 837h31v31h-31zM403 62h31v31h-31zM403 124h93v62h-93zM403 217h62v31h-62z"/><path d="M403 341h31v124h-31zM403 496h31v186h-31zM403 713h62v31h-62zM403 868h31v31h-31zM403 930h124v31H403zM434 93h31v186h-31zM434 310h62v31h-62zM434 465h31v31h-31zM434 527h31v93h-31z"/><path d="M434 682h31v93h-31zM434 806h31v62h-31zM465 93h31v124h-31zM465 341h31v62h-31zM465 496h31v31h-31zM465 620h62v93h-62zM465 775h62v31h-62zM465 899h62v62h-62zM496 124h62v31h-62zM496 186h31v93h-31zM496 434h31v62h-31z"/><path d="M496 527h31v186h-31zM496 744h31v62h-31zM527 155h93v62h-93zM527 279h31v31h-31zM527 465h31v31h-31zM527 527h62v31h-62zM527 589h31v93h-31zM527 806h31v62h-31zM527 899h62v31h-62zM558 62h31v31h-31zM558 248h31v31h-31zM558 341h31v62h-31z"/><path d="M558 496h31v93h-31zM558 620h62v31h-62zM558 682h31v124h-31zM558 837h93v31h-93zM589 93h62v31h-62zM589 217h31v31h-31zM589 279h31v93h-31zM589 434h31v31h-31z"/><path d="M589 589h31v155h-31zM589 806h31v93h-31zM620 124h62v31h-62zM620 248h31v31h-31zM620 341h31v62h-31zM620 558h31v31h-31zM620 651h62v31h-62zM620 713h31v93h-31zM620 899h31v62h-31zM651 62h62v31h-62zM651 155h31v93h-31zM651 310h62v62h-62zM651 403h31v155h-31zM651 744h62v62h-62zM651 899h93v31h-93zM682 93h31v31h-31zM682 248h31v31h-31zM682 496h31v124h-31z"/><path d="M682 682h31v155h-31zM682 930h31v31h-31zM713 341h124v31H713zM713 403h31v155h-31zM713 589h31v124h-31zM713 806h124v31H713zM713 868h31v62h-31zM744 62h31v217h-31z"/><path d="M744 310h31v62h-31zM744 403h62v31h-62zM744 465h31v62h-31zM744 682h155v31H744zM744 744h31v31h-31zM744 930h93v31h-93zM775 62h186v31H775zM775 248h186v31H775zM775 434h31v31h-31zM775 496h31v31h-31zM775 558h31v93h-31zM775 837h31v62h-31zM806 124h93v93h-93zM806 372h31v31h-31zM806 558h62v31h-62zM806 620h31v31h-31zM806 713h31v155h-31z"/><path d="M806 899h31v62h-31zM837 310h31v31h-31zM837 434h62v31h-62zM837 589h93v31h-93zM837 713h31v93h-31zM837 837h31v31h-31zM837 899h31v31h-31zM868 372h62v31h-62zM868 465h93v62h-93zM868 620h31v124h-31zM868 806h31v31h-31zM868 868h31v31h-31zM899 310h62v31h-62z"/><path d="M899 527h31v93h-31zM899 713h31v62h-31zM899 899h31v62h-31zM930 93h31v186h-31zM930 341h31v31h-31zM930 403h31v31h-31zM930 713h31v31h-31zM930 837h31v62h-31z"/></svg>